<svg xmlns="http://www.w3.org/2000/svg" width="101.5544" height="80" viewBox="0 0 101.5544 80"><path d="M88.7378,34.2719c-6.5048-6.602-13.1067-12.33-13.1067-22.33,0-6.8932,3.7864-10,7.767-10,5.631,0,9.0291,4.2718,13.398,16.8932l.68-.1942L96.699,2.9126A19.1921,19.1921,0,0,0,86.4078,0C77.0874,0,68.932,6.2136,68.932,18.1553c0,10.0971,6.1165,17.67,12.33,23.9806,6.5049,6.602,13.01,12.8156,13.01,23.2039,0,7.3786-3.398,12.8155-8.932,12.8155-5.34,0-10.7767-4.66-15.7282-17.4757l-.7767.2913.7767,15.9223A33.0175,33.0175,0,0,0,83.5922,80c10.4855,0,17.9611-7.0873,17.9611-20.3884C101.6505,47.8641,95.2427,40.5826,88.7378,34.2719Z" transform="translate(0)"/><path d="M31.9418,53.4952H29.9029V58.932c0,8.9321-.7767,12.5243-3.3981,19.32v.1942h10v-.1942c-3.5922-6.7961-4.466-10.4854-4.466-19.32Z" transform="translate(0)"/><path d="M57.9612,1.7476c3.5922,6.7962,4.466,10.4854,4.466,19.32l.1941,33.98L36.3107,1.5534H26.699v.1942A31.4006,31.4006,0,0,1,30,14.66V26.5049h1.8446l-.097-12.33L63.3981,78.6407H64.66V21.068c0-8.9321.7767-12.5242,3.3981-19.32V1.5534H57.9612Z" transform="translate(0)"/><path d="M.1942,29.0291,0,34.0777H.2912c.9709-2.1359,1.9418-4.369,2.9126-4.369H4.66V45.8253a13.768,13.768,0,0,1-.7767,5.2427H8.2524v-.0971a13.2765,13.2765,0,0,1-.7766-5.1456V29.8058H9.0291c.9709,0,1.9418,2.233,2.9127,4.3689l.2912-.097-.1941-5.0486Z" transform="translate(0)"/><path d="M21.9417,29.1262a13.2787,13.2787,0,0,1,.7768,5.1457v5.1456h-5.534V34.2719a13.2749,13.2749,0,0,1,.7767-5.1457v-.0971H13.6893v.0971a13.2786,13.2786,0,0,1,.7767,5.1457V45.7281a13.4916,13.4916,0,0,1-.7767,5.2428l4.2719.0971v-.0971a14.0475,14.0475,0,0,1-.7767-5.2428v-5.631h5.534v5.631a13.4917,13.4917,0,0,1-.7768,5.2428v.0971h4.2719v-.0971a14.0515,14.0515,0,0,1-.7767-5.2428V34.2719a13.2786,13.2786,0,0,1,.7767-5.1457v-.0971H21.9417Z" transform="translate(0)"/><path d="M34.7572,50.0971H31.65V39.8058h1.4563c.9709,0,2.0389,1.6505,2.5244,2.5243h.3883V36.6019h-.2913c-.5825.9709-1.5533,2.5243-2.5242,2.5243H31.7476V29.7087H34.66c1.0679,0,2.0388,2.6214,3.01,4.2719l.2912-.1942-.3883-4.8543h-9.32v.097a14.6564,14.6564,0,0,1,.7768,4.9515V46.0194a14.291,14.291,0,0,1-.7768,4.9515L38.35,50.7767l.3884-5.4369-.3884-.0971C37.2815,47.2816,36.1165,50.0971,34.7572,50.0971Z" transform="translate(0)"/></svg>